<svg xmlns="http://www.w3.org/2000/svg" viewBox="0 0 85.71 85.71">
  <title>Asset 3</title>
  <g id="Layer_2" data-name="Layer 2">
    <g id="Layer_1-2" data-name="Layer 1">
      <g>
        <rect x="18.53" width="2.32" height="2.32"/>
        <rect x="23.17" width="2.32" height="2.32"/>
        <rect x="25.48" width="2.32" height="2.32"/>
        <rect x="34.75" width="2.32" height="2.32"/>
        <rect x="39.38" width="2.32" height="2.32"/>
        <rect x="44.02" width="2.32" height="2.32"/>
        <rect x="46.33" width="2.32" height="2.32"/>
        <rect x="48.65" width="2.32" height="2.32"/>
        <rect x="50.97" width="2.32" height="2.32"/>
        <rect x="53.28" width="2.32" height="2.32"/>
        <rect x="20.85" y="2.32" width="2.32" height="2.32"/>
        <rect x="23.17" y="2.32" width="2.32" height="2.32"/>
        <rect x="32.43" y="2.32" width="2.32" height="2.32"/>
        <rect x="34.75" y="2.32" width="2.32" height="2.32"/>
        <rect x="39.38" y="2.32" width="2.32" height="2.32"/>
        <rect x="46.33" y="2.32" width="2.32" height="2.32"/>
        <rect x="48.65" y="2.32" width="2.32" height="2.32"/>
        <rect x="53.28" y="2.32" width="2.32" height="2.32"/>
        <rect x="57.92" y="2.32" width="2.32" height="2.32"/>
        <rect x="60.23" y="2.32" width="2.32" height="2.32"/>
        <rect x="64.86" y="2.32" width="2.32" height="2.32"/>
        <rect x="18.53" y="4.63" width="2.32" height="2.32"/>
        <rect x="25.48" y="4.63" width="2.32" height="2.32"/>
        <rect x="39.38" y="4.63" width="2.32" height="2.32"/>
        <rect x="44.02" y="4.63" width="2.32" height="2.32"/>
        <rect x="46.33" y="4.63" width="2.32" height="2.32"/>
        <rect x="48.65" y="4.63" width="2.32" height="2.32"/>
        <rect x="57.92" y="4.63" width="2.32" height="2.32"/>
        <rect x="62.55" y="4.63" width="2.32" height="2.32"/>
        <rect x="64.86" y="4.63" width="2.32" height="2.32"/>
        <rect x="20.85" y="6.95" width="2.32" height="2.32"/>
        <rect x="23.17" y="6.95" width="2.32" height="2.32"/>
        <rect x="32.43" y="6.95" width="2.32" height="2.32"/>
        <rect x="39.38" y="6.95" width="2.32" height="2.32"/>
        <rect x="46.33" y="6.95" width="2.32" height="2.32"/>
        <rect x="48.65" y="6.95" width="2.32" height="2.32"/>
        <rect x="50.97" y="6.95" width="2.32" height="2.32"/>
        <rect x="53.28" y="6.95" width="2.32" height="2.32"/>
        <rect x="55.6" y="6.95" width="2.32" height="2.32"/>
        <rect x="57.92" y="6.95" width="2.32" height="2.32"/>
        <rect x="60.23" y="6.95" width="2.32" height="2.32"/>
        <rect x="62.55" y="6.95" width="2.32" height="2.32"/>
        <rect x="20.85" y="9.27" width="2.32" height="2.32"/>
        <rect x="23.17" y="9.27" width="2.32" height="2.32"/>
        <rect x="25.48" y="9.27" width="2.32" height="2.32"/>
        <rect x="27.8" y="9.27" width="2.32" height="2.32"/>
        <rect x="30.12" y="9.27" width="2.32" height="2.32"/>
        <rect x="34.75" y="9.27" width="2.32" height="2.32"/>
        <rect x="41.7" y="9.27" width="2.32" height="2.32"/>
        <rect x="48.65" y="9.27" width="2.32" height="2.32"/>
        <rect x="57.92" y="9.27" width="2.32" height="2.32"/>
        <rect x="60.23" y="9.27" width="2.32" height="2.32"/>
        <rect x="18.53" y="11.58" width="2.32" height="2.32"/>
        <rect x="23.17" y="11.58" width="2.32" height="2.32"/>
        <rect x="25.48" y="11.58" width="2.32" height="2.32"/>
        <rect x="27.8" y="11.58" width="2.32" height="2.32"/>
        <rect x="34.75" y="11.58" width="2.32" height="2.32"/>
        <rect x="39.38" y="11.58" width="2.32" height="2.32"/>
        <rect x="41.7" y="11.58" width="2.32" height="2.32"/>
        <rect x="55.6" y="11.58" width="2.32" height="2.32"/>
        <rect x="60.23" y="11.58" width="2.32" height="2.32"/>
        <rect x="64.86" y="11.58" width="2.32" height="2.32"/>
        <rect x="18.53" y="13.9" width="2.32" height="2.32"/>
        <rect x="23.17" y="13.9" width="2.32" height="2.32"/>
        <rect x="27.8" y="13.9" width="2.32" height="2.32"/>
        <rect x="32.43" y="13.9" width="2.32" height="2.32"/>
        <rect x="37.07" y="13.9" width="2.32" height="2.32"/>
        <rect x="41.7" y="13.9" width="2.32" height="2.32"/>
        <rect x="46.33" y="13.9" width="2.32" height="2.32"/>
        <rect x="50.97" y="13.9" width="2.32" height="2.32"/>
        <rect x="55.6" y="13.9" width="2.32" height="2.32"/>
        <rect x="60.23" y="13.9" width="2.32" height="2.32"/>
        <rect x="64.86" y="13.9" width="2.32" height="2.32"/>
        <rect x="27.8" y="16.22" width="2.32" height="2.32"/>
        <rect x="32.43" y="16.22" width="2.32" height="2.32"/>
        <rect x="37.07" y="16.22" width="2.32" height="2.32"/>
        <rect x="39.38" y="16.22" width="2.32" height="2.32"/>
        <rect x="50.97" y="16.22" width="2.32" height="2.32"/>
        <rect x="53.28" y="16.22" width="2.32" height="2.32"/>
        <rect x="55.6" y="16.22" width="2.32" height="2.32"/>
        <rect x="62.55" y="16.22" width="2.32" height="2.32"/>
        <rect x="64.86" y="16.22" width="2.32" height="2.32"/>
        <rect y="18.53" width="2.32" height="2.32"/>
        <rect x="4.63" y="18.53" width="2.32" height="2.32"/>
        <rect x="13.9" y="18.53" width="2.32" height="2.32"/>
        <rect x="16.22" y="18.53" width="2.32" height="2.32"/>
        <rect x="27.8" y="18.53" width="2.32" height="2.32"/>
        <rect x="32.43" y="18.53" width="2.32" height="2.32"/>
        <rect x="34.75" y="18.53" width="2.32" height="2.32"/>
        <rect x="39.38" y="18.53" width="2.32" height="2.32"/>
        <rect x="44.02" y="18.53" width="2.32" height="2.32"/>
        <rect x="46.33" y="18.53" width="2.32" height="2.32"/>
        <rect x="48.65" y="18.53" width="2.32" height="2.32"/>
        <rect x="50.97" y="18.53" width="2.32" height="2.32"/>
        <rect x="64.86" y="18.53" width="2.32" height="2.32"/>
        <rect x="71.81" y="18.53" width="2.32" height="2.32"/>
        <rect x="78.76" y="18.53" width="2.32" height="2.32"/>
        <rect x="83.4" y="18.53" width="2.32" height="2.32"/>
        <rect x="4.63" y="20.85" width="2.32" height="2.32"/>
        <rect x="9.27" y="20.85" width="2.32" height="2.32"/>
        <rect x="11.58" y="20.85" width="2.32" height="2.32"/>
        <rect x="20.85" y="20.85" width="2.32" height="2.32"/>
        <rect x="23.17" y="20.85" width="2.32" height="2.32"/>
        <rect x="25.48" y="20.85" width="2.32" height="2.32"/>
        <rect x="27.8" y="20.85" width="2.32" height="2.32"/>
        <rect x="30.12" y="20.85" width="2.32" height="2.32"/>
        <rect x="32.43" y="20.85" width="2.32" height="2.32"/>
        <rect x="39.38" y="20.85" width="2.32" height="2.32"/>
        <rect x="46.33" y="20.85" width="2.32" height="2.32"/>
        <rect x="50.97" y="20.85" width="2.32" height="2.32"/>
        <rect x="62.55" y="20.85" width="2.32" height="2.32"/>
        <rect x="64.86" y="20.85" width="2.32" height="2.32"/>
        <rect x="69.5" y="20.85" width="2.32" height="2.32"/>
        <rect x="71.81" y="20.85" width="2.32" height="2.32"/>
        <rect x="76.45" y="20.85" width="2.32" height="2.32"/>
        <rect x="81.08" y="20.85" width="2.32" height="2.32"/>
        <rect x="83.4" y="20.85" width="2.32" height="2.32"/>
        <rect x="4.63" y="23.17" width="2.32" height="2.32"/>
        <rect x="13.9" y="23.17" width="2.32" height="2.32"/>
        <rect x="16.22" y="23.17" width="2.32" height="2.32"/>
        <rect x="18.53" y="23.17" width="2.32" height="2.32"/>
        <rect x="23.17" y="23.17" width="2.32" height="2.32"/>
        <rect x="25.48" y="23.17" width="2.32" height="2.32"/>
        <rect x="34.75" y="23.17" width="2.32" height="2.32"/>
        <rect x="46.33" y="23.17" width="2.32" height="2.32"/>
        <rect x="48.65" y="23.17" width="2.32" height="2.32"/>
        <rect x="53.28" y="23.17" width="2.32" height="2.32"/>
        <rect x="62.55" y="23.17" width="2.32" height="2.32"/>
        <rect x="64.86" y="23.17" width="2.32" height="2.32"/>
        <rect x="67.18" y="23.17" width="2.32" height="2.32"/>
        <rect x="69.5" y="23.17" width="2.32" height="2.32"/>
        <rect x="76.45" y="23.17" width="2.32" height="2.32"/>
        <rect x="78.76" y="23.17" width="2.32" height="2.32"/>
        <rect x="83.4" y="23.17" width="2.32" height="2.32"/>
        <rect y="25.48" width="2.32" height="2.32"/>
        <rect x="4.63" y="25.48" width="2.32" height="2.32"/>
        <rect x="6.95" y="25.48" width="2.32" height="2.32"/>
        <rect x="9.27" y="25.48" width="2.32" height="2.32"/>
        <rect x="11.58" y="25.48" width="2.32" height="2.32"/>
        <rect x="20.85" y="25.48" width="2.32" height="2.32"/>
        <rect x="23.17" y="25.48" width="2.32" height="2.32"/>
        <rect x="27.8" y="25.48" width="2.32" height="2.32"/>
        <rect x="41.7" y="25.48" width="2.32" height="2.32"/>
        <rect x="44.02" y="25.48" width="2.32" height="2.32"/>
        <rect x="46.33" y="25.48" width="2.32" height="2.32"/>
        <rect x="60.23" y="25.48" width="2.32" height="2.32"/>
        <rect x="64.86" y="25.48" width="2.32" height="2.32"/>
        <rect x="71.81" y="25.48" width="2.32" height="2.32"/>
        <rect x="4.63" y="27.8" width="2.32" height="2.32"/>
        <rect x="6.95" y="27.8" width="2.32" height="2.32"/>
        <rect x="9.27" y="27.8" width="2.32" height="2.32"/>
        <rect x="11.58" y="27.8" width="2.32" height="2.32"/>
        <rect x="13.9" y="27.8" width="2.32" height="2.32"/>
        <rect x="16.22" y="27.8" width="2.32" height="2.32"/>
        <rect x="18.53" y="27.8" width="2.32" height="2.32"/>
        <rect x="23.17" y="27.8" width="2.32" height="2.32"/>
        <rect x="25.48" y="27.8" width="2.32" height="2.32"/>
        <rect x="30.12" y="27.8" width="2.32" height="2.32"/>
        <rect x="34.75" y="27.8" width="2.32" height="2.32"/>
        <rect x="53.28" y="27.8" width="2.32" height="2.32"/>
        <rect x="55.6" y="27.8" width="2.32" height="2.32"/>
        <rect x="64.86" y="27.8" width="2.32" height="2.32"/>
        <rect x="69.5" y="27.8" width="2.32" height="2.32"/>
        <rect x="83.4" y="27.8" width="2.32" height="2.32"/>
        <rect y="30.12" width="2.32" height="2.32"/>
        <rect x="2.32" y="30.12" width="2.32" height="2.32"/>
        <rect x="4.63" y="30.12" width="2.32" height="2.32"/>
        <rect x="9.27" y="30.12" width="2.32" height="2.32"/>
        <rect x="11.58" y="30.12" width="2.32" height="2.32"/>
        <rect x="20.85" y="30.12" width="2.32" height="2.32"/>
        <rect x="23.17" y="30.12" width="2.32" height="2.32"/>
        <rect x="25.48" y="30.12" width="2.32" height="2.32"/>
        <rect x="27.8" y="30.12" width="2.32" height="2.32"/>
        <rect x="34.75" y="30.12" width="2.32" height="2.32"/>
        <rect x="37.07" y="30.12" width="2.32" height="2.32"/>
        <rect x="44.02" y="30.12" width="2.32" height="2.32"/>
        <rect x="46.33" y="30.12" width="2.32" height="2.32"/>
        <rect x="48.65" y="30.12" width="2.32" height="2.32"/>
        <rect x="53.28" y="30.12" width="2.32" height="2.32"/>
        <rect x="57.92" y="30.12" width="2.32" height="2.32"/>
        <rect x="62.55" y="30.12" width="2.32" height="2.32"/>
        <rect x="64.86" y="30.12" width="2.32" height="2.32"/>
        <rect x="69.5" y="30.12" width="2.32" height="2.32"/>
        <rect x="71.81" y="30.12" width="2.32" height="2.32"/>
        <rect x="76.45" y="30.12" width="2.32" height="2.32"/>
        <rect x="83.4" y="30.12" width="2.32" height="2.32"/>
        <rect x="13.9" y="32.43" width="2.32" height="2.32"/>
        <rect x="16.22" y="32.43" width="2.32" height="2.32"/>
        <rect x="23.17" y="32.43" width="2.32" height="2.32"/>
        <rect x="27.8" y="32.43" width="2.32" height="2.32"/>
        <rect x="34.75" y="32.43" width="2.32" height="2.32"/>
        <rect x="37.07" y="32.43" width="2.32" height="2.32"/>
        <rect x="39.38" y="32.43" width="2.32" height="2.32"/>
        <rect x="41.7" y="32.43" width="2.32" height="2.32"/>
        <rect x="44.02" y="32.43" width="2.32" height="2.32"/>
        <rect x="46.33" y="32.43" width="2.32" height="2.32"/>
        <rect x="53.28" y="32.43" width="2.32" height="2.32"/>
        <rect x="57.92" y="32.43" width="2.32" height="2.32"/>
        <rect x="62.55" y="32.43" width="2.32" height="2.32"/>
        <rect x="67.18" y="32.43" width="2.32" height="2.32"/>
        <rect x="76.45" y="32.43" width="2.32" height="2.32"/>
        <rect x="78.76" y="32.43" width="2.32" height="2.32"/>
        <rect x="83.4" y="32.43" width="2.32" height="2.32"/>
        <rect x="4.63" y="34.75" width="2.32" height="2.32"/>
        <rect x="6.95" y="34.75" width="2.32" height="2.32"/>
        <rect x="11.58" y="34.75" width="2.32" height="2.32"/>
        <rect x="16.22" y="34.75" width="2.32" height="2.32"/>
        <rect x="18.53" y="34.75" width="2.32" height="2.32"/>
        <rect x="25.48" y="34.75" width="2.32" height="2.32"/>
        <rect x="27.8" y="34.75" width="2.32" height="2.32"/>
        <rect x="30.12" y="34.75" width="2.32" height="2.32"/>
        <rect x="37.07" y="34.75" width="2.32" height="2.32"/>
        <rect x="41.7" y="34.75" width="2.32" height="2.32"/>
        <rect x="48.65" y="34.75" width="2.32" height="2.32"/>
        <rect x="55.6" y="34.75" width="2.32" height="2.32"/>
        <rect x="60.23" y="34.75" width="2.32" height="2.32"/>
        <rect x="62.55" y="34.75" width="2.32" height="2.32"/>
        <rect x="64.86" y="34.75" width="2.32" height="2.32"/>
        <rect x="71.81" y="34.75" width="2.32" height="2.32"/>
        <rect x="74.13" y="34.75" width="2.32" height="2.32"/>
        <rect x="76.45" y="34.75" width="2.32" height="2.32"/>
        <rect x="81.08" y="34.75" width="2.32" height="2.32"/>
        <rect y="37.07" width="2.32" height="2.32"/>
        <rect x="4.63" y="37.07" width="2.32" height="2.32"/>
        <rect x="13.9" y="37.07" width="2.32" height="2.32"/>
        <rect x="20.85" y="37.07" width="2.32" height="2.32"/>
        <rect x="23.17" y="37.07" width="2.32" height="2.32"/>
        <rect x="25.48" y="37.07" width="2.32" height="2.32"/>
        <rect x="32.43" y="37.07" width="2.32" height="2.32"/>
        <rect x="37.07" y="37.07" width="2.32" height="2.32"/>
        <rect x="39.38" y="37.07" width="2.32" height="2.32"/>
        <rect x="41.7" y="37.07" width="2.32" height="2.32"/>
        <rect x="44.02" y="37.07" width="2.32" height="2.32"/>
        <rect x="48.65" y="37.07" width="2.32" height="2.32"/>
        <rect x="55.6" y="37.07" width="2.32" height="2.32"/>
        <rect x="62.55" y="37.07" width="2.32" height="2.32"/>
        <rect x="64.86" y="37.07" width="2.32" height="2.32"/>
        <rect x="69.5" y="37.07" width="2.32" height="2.32"/>
        <rect x="71.81" y="37.07" width="2.32" height="2.32"/>
        <rect x="81.08" y="37.07" width="2.32" height="2.32"/>
        <rect x="2.32" y="39.38" width="2.32" height="2.32"/>
        <rect x="4.63" y="39.38" width="2.32" height="2.32"/>
        <rect x="6.95" y="39.38" width="2.32" height="2.32"/>
        <rect x="9.27" y="39.38" width="2.32" height="2.32"/>
        <rect x="11.58" y="39.38" width="2.32" height="2.32"/>
        <rect x="18.53" y="39.38" width="2.32" height="2.32"/>
        <rect x="27.8" y="39.38" width="2.32" height="2.32"/>
        <rect x="30.12" y="39.38" width="2.32" height="2.32"/>
        <rect x="37.07" y="39.38" width="2.32" height="2.32"/>
        <rect x="41.7" y="39.38" width="2.32" height="2.32"/>
        <rect x="48.65" y="39.38" width="2.32" height="2.32"/>
        <rect x="55.6" y="39.38" width="2.32" height="2.32"/>
        <rect x="57.92" y="39.38" width="2.32" height="2.32"/>
        <rect x="60.23" y="39.38" width="2.32" height="2.32"/>
        <rect x="62.55" y="39.38" width="2.32" height="2.32"/>
        <rect x="64.86" y="39.38" width="2.32" height="2.32"/>
        <rect x="67.18" y="39.38" width="2.32" height="2.32"/>
        <rect x="69.5" y="39.38" width="2.32" height="2.32"/>
        <rect x="71.81" y="39.38" width="2.32" height="2.32"/>
        <rect x="76.45" y="39.38" width="2.32" height="2.32"/>
        <rect x="78.76" y="39.38" width="2.32" height="2.32"/>
        <rect x="81.08" y="39.38" width="2.32" height="2.32"/>
        <rect x="83.4" y="39.38" width="2.32" height="2.32"/>
        <rect x="4.63" y="41.7" width="2.32" height="2.32"/>
        <rect x="9.27" y="41.7" width="2.32" height="2.32"/>
        <rect x="11.58" y="41.7" width="2.32" height="2.32"/>
        <rect x="13.9" y="41.7" width="2.32" height="2.32"/>
        <rect x="16.22" y="41.7" width="2.32" height="2.32"/>
        <rect x="20.85" y="41.7" width="2.32" height="2.32"/>
        <rect x="25.48" y="41.7" width="2.32" height="2.32"/>
        <rect x="32.43" y="41.7" width="2.32" height="2.32"/>
        <rect x="37.07" y="41.7" width="2.32" height="2.32"/>
        <rect x="39.38" y="41.7" width="2.32" height="2.32"/>
        <rect x="44.02" y="41.7" width="2.32" height="2.32"/>
        <rect x="55.6" y="41.7" width="2.32" height="2.32"/>
        <rect x="57.92" y="41.7" width="2.32" height="2.32"/>
        <rect x="62.55" y="41.7" width="2.32" height="2.32"/>
        <rect x="64.86" y="41.7" width="2.32" height="2.32"/>
        <rect x="71.81" y="41.7" width="2.32" height="2.32"/>
        <rect x="78.76" y="41.7" width="2.32" height="2.32"/>
        <rect x="83.4" y="41.7" width="2.32" height="2.32"/>
        <rect y="44.02" width="2.32" height="2.32"/>
        <rect x="9.27" y="44.02" width="2.32" height="2.32"/>
        <rect x="11.58" y="44.02" width="2.32" height="2.32"/>
        <rect x="23.17" y="44.02" width="2.32" height="2.32"/>
        <rect x="27.8" y="44.02" width="2.32" height="2.32"/>
        <rect x="32.43" y="44.02" width="2.32" height="2.32"/>
        <rect x="34.75" y="44.02" width="2.32" height="2.32"/>
        <rect x="37.07" y="44.02" width="2.32" height="2.32"/>
        <rect x="50.97" y="44.02" width="2.32" height="2.32"/>
        <rect x="53.28" y="44.02" width="2.32" height="2.32"/>
        <rect x="55.6" y="44.02" width="2.32" height="2.32"/>
        <rect x="62.55" y="44.02" width="2.32" height="2.32"/>
        <rect x="64.86" y="44.02" width="2.32" height="2.32"/>
        <rect x="71.81" y="44.02" width="2.32" height="2.32"/>
        <rect x="74.13" y="44.02" width="2.32" height="2.32"/>
        <rect x="76.45" y="44.02" width="2.32" height="2.32"/>
        <rect y="46.33" width="2.32" height="2.32"/>
        <rect x="2.32" y="46.33" width="2.32" height="2.32"/>
        <rect x="9.27" y="46.33" width="2.32" height="2.32"/>
        <rect x="13.9" y="46.33" width="2.32" height="2.32"/>
        <rect x="18.53" y="46.33" width="2.32" height="2.32"/>
        <rect x="23.17" y="46.33" width="2.32" height="2.32"/>
        <rect x="27.8" y="46.33" width="2.32" height="2.32"/>
        <rect x="30.12" y="46.33" width="2.32" height="2.32"/>
        <rect x="32.43" y="46.33" width="2.32" height="2.32"/>
        <rect x="37.07" y="46.33" width="2.32" height="2.32"/>
        <rect x="44.02" y="46.33" width="2.32" height="2.32"/>
        <rect x="55.6" y="46.33" width="2.32" height="2.32"/>
        <rect x="64.86" y="46.33" width="2.32" height="2.32"/>
        <rect x="69.5" y="46.33" width="2.32" height="2.32"/>
        <rect x="71.81" y="46.33" width="2.32" height="2.32"/>
        <rect x="76.45" y="46.33" width="2.32" height="2.32"/>
        <rect x="81.08" y="46.33" width="2.32" height="2.32"/>
        <rect x="6.95" y="48.65" width="2.32" height="2.32"/>
        <rect x="16.22" y="48.65" width="2.32" height="2.32"/>
        <rect x="18.53" y="48.65" width="2.32" height="2.32"/>
        <rect x="23.17" y="48.65" width="2.32" height="2.32"/>
        <rect x="27.8" y="48.65" width="2.32" height="2.32"/>
        <rect x="30.12" y="48.65" width="2.32" height="2.32"/>
        <rect x="34.75" y="48.65" width="2.32" height="2.32"/>
        <rect x="37.07" y="48.65" width="2.32" height="2.32"/>
        <rect x="39.38" y="48.65" width="2.32" height="2.32"/>
        <rect x="44.02" y="48.65" width="2.32" height="2.32"/>
        <rect x="46.33" y="48.65" width="2.32" height="2.32"/>
        <rect x="50.97" y="48.65" width="2.32" height="2.32"/>
        <rect x="53.28" y="48.65" width="2.32" height="2.32"/>
        <rect x="55.6" y="48.65" width="2.32" height="2.32"/>
        <rect x="62.55" y="48.65" width="2.32" height="2.32"/>
        <rect x="64.86" y="48.65" width="2.32" height="2.32"/>
        <rect x="69.5" y="48.65" width="2.32" height="2.32"/>
        <rect x="83.4" y="48.65" width="2.32" height="2.32"/>
        <rect y="50.97" width="2.32" height="2.32"/>
        <rect x="2.32" y="50.97" width="2.32" height="2.32"/>
        <rect x="4.63" y="50.97" width="2.32" height="2.32"/>
        <rect x="6.95" y="50.97" width="2.32" height="2.32"/>
        <rect x="9.27" y="50.97" width="2.32" height="2.32"/>
        <rect x="11.58" y="50.97" width="2.32" height="2.32"/>
        <rect x="13.9" y="50.97" width="2.32" height="2.32"/>
        <rect x="16.22" y="50.97" width="2.32" height="2.32"/>
        <rect x="18.53" y="50.97" width="2.32" height="2.32"/>
        <rect x="23.17" y="50.97" width="2.32" height="2.32"/>
        <rect x="27.8" y="50.97" width="2.32" height="2.32"/>
        <rect x="34.75" y="50.97" width="2.32" height="2.32"/>
        <rect x="44.02" y="50.97" width="2.32" height="2.32"/>
        <rect x="48.65" y="50.97" width="2.32" height="2.32"/>
        <rect x="50.97" y="50.97" width="2.32" height="2.32"/>
        <rect x="53.28" y="50.97" width="2.32" height="2.32"/>
        <rect x="57.92" y="50.97" width="2.32" height="2.32"/>
        <rect x="62.55" y="50.97" width="2.32" height="2.32"/>
        <rect x="64.86" y="50.97" width="2.32" height="2.32"/>
        <rect x="67.18" y="50.97" width="2.32" height="2.32"/>
        <rect x="69.5" y="50.97" width="2.32" height="2.32"/>
        <rect x="76.45" y="50.97" width="2.32" height="2.32"/>
        <rect x="78.76" y="50.97" width="2.32" height="2.32"/>
        <rect x="83.4" y="50.97" width="2.32" height="2.32"/>
        <rect y="53.28" width="2.32" height="2.32"/>
        <rect x="6.95" y="53.28" width="2.32" height="2.32"/>
        <rect x="18.53" y="53.28" width="2.32" height="2.32"/>
        <rect x="23.17" y="53.28" width="2.32" height="2.32"/>
        <rect x="30.12" y="53.28" width="2.32" height="2.32"/>
        <rect x="39.38" y="53.28" width="2.32" height="2.32"/>
        <rect x="50.97" y="53.28" width="2.32" height="2.32"/>
        <rect x="53.28" y="53.28" width="2.32" height="2.32"/>
        <rect x="55.6" y="53.28" width="2.32" height="2.32"/>
        <rect x="60.23" y="53.28" width="2.32" height="2.32"/>
        <rect x="62.55" y="53.28" width="2.32" height="2.32"/>
        <rect x="64.86" y="53.28" width="2.32" height="2.32"/>
        <rect x="67.18" y="53.28" width="2.32" height="2.32"/>
        <rect x="69.5" y="53.28" width="2.32" height="2.32"/>
        <rect x="71.81" y="53.28" width="2.32" height="2.32"/>
        <rect x="74.13" y="53.28" width="2.32" height="2.32"/>
        <rect x="76.45" y="53.28" width="2.32" height="2.32"/>
        <rect x="81.08" y="53.28" width="2.32" height="2.32"/>
        <rect x="83.4" y="53.28" width="2.32" height="2.32"/>
        <rect x="13.9" y="55.6" width="2.32" height="2.32"/>
        <rect x="20.85" y="55.6" width="2.32" height="2.32"/>
        <rect x="23.17" y="55.6" width="2.32" height="2.32"/>
        <rect x="27.8" y="55.6" width="2.32" height="2.32"/>
        <rect x="39.38" y="55.6" width="2.32" height="2.32"/>
        <rect x="44.02" y="55.6" width="2.32" height="2.32"/>
        <rect x="46.33" y="55.6" width="2.32" height="2.32"/>
        <rect x="48.65" y="55.6" width="2.32" height="2.32"/>
        <rect x="50.97" y="55.6" width="2.32" height="2.32"/>
        <rect x="55.6" y="55.6" width="2.32" height="2.32"/>
        <rect x="64.86" y="55.6" width="2.32" height="2.32"/>
        <rect x="69.5" y="55.6" width="2.32" height="2.32"/>
        <rect x="71.81" y="55.6" width="2.32" height="2.32"/>
        <rect x="2.32" y="57.92" width="2.32" height="2.32"/>
        <rect x="6.95" y="57.92" width="2.32" height="2.32"/>
        <rect x="11.58" y="57.92" width="2.32" height="2.32"/>
        <rect x="16.22" y="57.92" width="2.32" height="2.32"/>
        <rect x="25.48" y="57.92" width="2.32" height="2.32"/>
        <rect x="27.8" y="57.92" width="2.32" height="2.32"/>
        <rect x="30.12" y="57.92" width="2.32" height="2.32"/>
        <rect x="32.43" y="57.92" width="2.32" height="2.32"/>
        <rect x="46.33" y="57.92" width="2.32" height="2.32"/>
        <rect x="50.97" y="57.92" width="2.32" height="2.32"/>
        <rect x="60.23" y="57.92" width="2.32" height="2.32"/>
        <rect x="62.55" y="57.92" width="2.32" height="2.32"/>
        <rect x="67.18" y="57.92" width="2.32" height="2.32"/>
        <rect x="69.5" y="57.92" width="2.32" height="2.32"/>
        <rect x="83.4" y="57.92" width="2.32" height="2.32"/>
        <rect y="60.23" width="2.32" height="2.32"/>
        <rect x="2.32" y="60.23" width="2.32" height="2.32"/>
        <rect x="6.95" y="60.23" width="2.32" height="2.32"/>
        <rect x="13.9" y="60.23" width="2.32" height="2.32"/>
        <rect x="23.17" y="60.23" width="2.32" height="2.32"/>
        <rect x="27.8" y="60.23" width="2.32" height="2.32"/>
        <rect x="32.43" y="60.23" width="2.32" height="2.32"/>
        <rect x="34.75" y="60.23" width="2.32" height="2.32"/>
        <rect x="39.38" y="60.23" width="2.32" height="2.32"/>
        <rect x="46.33" y="60.23" width="2.32" height="2.32"/>
        <rect x="50.97" y="60.23" width="2.32" height="2.32"/>
        <rect x="53.28" y="60.23" width="2.32" height="2.32"/>
        <rect x="55.6" y="60.23" width="2.32" height="2.32"/>
        <rect x="57.92" y="60.23" width="2.32" height="2.32"/>
        <rect x="62.55" y="60.23" width="2.32" height="2.32"/>
        <rect x="64.86" y="60.23" width="2.32" height="2.32"/>
        <rect x="67.18" y="60.23" width="2.32" height="2.32"/>
        <rect x="69.5" y="60.23" width="2.32" height="2.32"/>
        <rect x="74.13" y="60.23" width="2.32" height="2.32"/>
        <rect x="83.4" y="60.23" width="2.32" height="2.32"/>
        <rect x="18.53" y="62.55" width="2.32" height="2.32"/>
        <rect x="20.85" y="62.55" width="2.32" height="2.32"/>
        <rect x="41.7" y="62.55" width="2.32" height="2.32"/>
        <rect x="44.02" y="62.55" width="2.32" height="2.32"/>
        <rect x="46.33" y="62.55" width="2.32" height="2.32"/>
        <rect x="60.23" y="62.55" width="2.32" height="2.32"/>
        <rect x="64.86" y="62.55" width="2.32" height="2.32"/>
        <rect x="67.18" y="62.55" width="2.32" height="2.32"/>
        <rect x="71.81" y="62.55" width="2.32" height="2.32"/>
        <rect x="74.13" y="62.55" width="2.32" height="2.32"/>
        <rect x="76.45" y="62.55" width="2.32" height="2.32"/>
        <rect y="64.86" width="2.32" height="2.32"/>
        <rect x="2.32" y="64.86" width="2.32" height="2.32"/>
        <rect x="4.63" y="64.86" width="2.32" height="2.32"/>
        <rect x="13.9" y="64.86" width="2.32" height="2.32"/>
        <rect x="18.53" y="64.86" width="2.32" height="2.32"/>
        <rect x="23.17" y="64.86" width="2.32" height="2.32"/>
        <rect x="27.8" y="64.86" width="2.32" height="2.32"/>
        <rect x="30.12" y="64.86" width="2.32" height="2.32"/>
        <rect x="34.75" y="64.86" width="2.32" height="2.32"/>
        <rect x="37.07" y="64.86" width="2.32" height="2.32"/>
        <rect x="46.33" y="64.86" width="2.32" height="2.32"/>
        <rect x="55.6" y="64.86" width="2.32" height="2.32"/>
        <rect x="60.23" y="64.86" width="2.32" height="2.32"/>
        <rect x="64.86" y="64.86" width="2.32" height="2.32"/>
        <rect x="67.18" y="64.86" width="2.32" height="2.32"/>
        <rect x="69.5" y="64.86" width="2.32" height="2.32"/>
        <rect x="71.81" y="64.86" width="2.32" height="2.32"/>
        <rect x="74.13" y="64.86" width="2.32" height="2.32"/>
        <rect x="76.45" y="64.86" width="2.32" height="2.32"/>
        <rect x="81.08" y="64.86" width="2.32" height="2.32"/>
        <rect x="83.4" y="64.86" width="2.32" height="2.32"/>
        <rect x="18.53" y="67.18" width="2.32" height="2.32"/>
        <rect x="25.48" y="67.18" width="2.32" height="2.32"/>
        <rect x="27.8" y="67.18" width="2.32" height="2.32"/>
        <rect x="32.43" y="67.18" width="2.32" height="2.32"/>
        <rect x="34.75" y="67.18" width="2.32" height="2.32"/>
        <rect x="37.07" y="67.18" width="2.32" height="2.32"/>
        <rect x="41.7" y="67.18" width="2.32" height="2.32"/>
        <rect x="44.02" y="67.18" width="2.32" height="2.32"/>
        <rect x="46.33" y="67.18" width="2.32" height="2.32"/>
        <rect x="48.65" y="67.18" width="2.32" height="2.32"/>
        <rect x="53.28" y="67.18" width="2.32" height="2.32"/>
        <rect x="55.6" y="67.18" width="2.32" height="2.32"/>
        <rect x="64.86" y="67.18" width="2.32" height="2.32"/>
        <rect x="74.13" y="67.18" width="2.32" height="2.32"/>
        <rect x="81.08" y="67.18" width="2.32" height="2.32"/>
        <rect x="83.4" y="67.18" width="2.32" height="2.32"/>
        <rect x="18.53" y="69.5" width="2.32" height="2.32"/>
        <rect x="20.85" y="69.5" width="2.32" height="2.32"/>
        <rect x="30.12" y="69.5" width="2.32" height="2.32"/>
        <rect x="32.43" y="69.5" width="2.32" height="2.32"/>
        <rect x="34.75" y="69.5" width="2.32" height="2.32"/>
        <rect x="39.38" y="69.5" width="2.32" height="2.32"/>
        <rect x="41.7" y="69.5" width="2.32" height="2.32"/>
        <rect x="44.02" y="69.5" width="2.32" height="2.32"/>
        <rect x="53.28" y="69.5" width="2.32" height="2.32"/>
        <rect x="60.23" y="69.5" width="2.32" height="2.32"/>
        <rect x="64.86" y="69.5" width="2.32" height="2.32"/>
        <rect x="69.5" y="69.5" width="2.32" height="2.32"/>
        <rect x="74.13" y="69.5" width="2.32" height="2.32"/>
        <rect x="81.08" y="69.5" width="2.32" height="2.32"/>
        <rect x="83.4" y="69.5" width="2.32" height="2.32"/>
        <rect x="20.85" y="71.81" width="2.32" height="2.32"/>
        <rect x="23.17" y="71.81" width="2.32" height="2.32"/>
        <rect x="30.12" y="71.81" width="2.32" height="2.32"/>
        <rect x="41.7" y="71.81" width="2.32" height="2.32"/>
        <rect x="44.02" y="71.81" width="2.32" height="2.32"/>
        <rect x="46.33" y="71.81" width="2.32" height="2.32"/>
        <rect x="48.65" y="71.81" width="2.32" height="2.32"/>
        <rect x="53.28" y="71.81" width="2.32" height="2.32"/>
        <rect x="60.23" y="71.81" width="2.32" height="2.32"/>
        <rect x="64.86" y="71.81" width="2.32" height="2.32"/>
        <rect x="74.13" y="71.81" width="2.32" height="2.32"/>
        <rect x="81.08" y="71.81" width="2.32" height="2.32"/>
        <rect x="83.4" y="71.81" width="2.32" height="2.32"/>
        <rect x="25.48" y="74.13" width="2.32" height="2.32"/>
        <rect x="32.43" y="74.13" width="2.32" height="2.32"/>
        <rect x="34.75" y="74.13" width="2.32" height="2.32"/>
        <rect x="37.07" y="74.13" width="2.32" height="2.32"/>
        <rect x="39.38" y="74.13" width="2.32" height="2.32"/>
        <rect x="41.7" y="74.13" width="2.32" height="2.32"/>
        <rect x="48.65" y="74.13" width="2.32" height="2.32"/>
        <rect x="53.28" y="74.13" width="2.32" height="2.32"/>
        <rect x="62.55" y="74.13" width="2.32" height="2.32"/>
        <rect x="64.86" y="74.13" width="2.32" height="2.32"/>
        <rect x="67.18" y="74.13" width="2.32" height="2.32"/>
        <rect x="69.5" y="74.13" width="2.32" height="2.32"/>
        <rect x="71.81" y="74.13" width="2.32" height="2.32"/>
        <rect x="74.13" y="74.13" width="2.32" height="2.32"/>
        <rect x="81.08" y="74.13" width="2.32" height="2.32"/>
        <rect x="83.4" y="74.13" width="2.32" height="2.32"/>
        <rect x="20.85" y="76.45" width="2.32" height="2.32"/>
        <rect x="27.8" y="76.45" width="2.32" height="2.32"/>
        <rect x="30.12" y="76.45" width="2.32" height="2.32"/>
        <rect x="32.43" y="76.45" width="2.32" height="2.32"/>
        <rect x="37.07" y="76.45" width="2.32" height="2.32"/>
        <rect x="41.7" y="76.45" width="2.32" height="2.32"/>
        <rect x="53.28" y="76.45" width="2.32" height="2.32"/>
        <rect x="55.6" y="76.45" width="2.32" height="2.32"/>
        <rect x="57.92" y="76.45" width="2.32" height="2.32"/>
        <rect x="62.55" y="76.45" width="2.32" height="2.32"/>
        <rect x="67.18" y="76.45" width="2.32" height="2.32"/>
        <rect x="74.13" y="76.45" width="2.32" height="2.32"/>
        <rect x="76.45" y="76.45" width="2.32" height="2.32"/>
        <rect x="78.76" y="76.45" width="2.32" height="2.32"/>
        <rect x="18.53" y="78.76" width="2.32" height="2.32"/>
        <rect x="20.85" y="78.76" width="2.32" height="2.32"/>
        <rect x="23.17" y="78.76" width="2.32" height="2.32"/>
        <rect x="30.12" y="78.76" width="2.32" height="2.32"/>
        <rect x="37.07" y="78.76" width="2.32" height="2.32"/>
        <rect x="39.38" y="78.76" width="2.32" height="2.32"/>
        <rect x="44.02" y="78.76" width="2.32" height="2.32"/>
        <rect x="48.65" y="78.76" width="2.32" height="2.32"/>
        <rect x="53.28" y="78.76" width="2.32" height="2.32"/>
        <rect x="55.6" y="78.76" width="2.32" height="2.32"/>
        <rect x="62.55" y="78.76" width="2.32" height="2.32"/>
        <rect x="71.81" y="78.76" width="2.32" height="2.32"/>
        <rect x="74.13" y="78.76" width="2.32" height="2.32"/>
        <rect x="83.4" y="78.76" width="2.32" height="2.32"/>
        <rect x="20.85" y="81.08" width="2.32" height="2.32"/>
        <rect x="23.17" y="81.08" width="2.32" height="2.32"/>
        <rect x="25.48" y="81.08" width="2.32" height="2.32"/>
        <rect x="30.12" y="81.08" width="2.32" height="2.32"/>
        <rect x="34.75" y="81.08" width="2.32" height="2.32"/>
        <rect x="37.07" y="81.08" width="2.32" height="2.32"/>
        <rect x="50.97" y="81.08" width="2.32" height="2.32"/>
        <rect x="55.6" y="81.08" width="2.32" height="2.32"/>
        <rect x="64.86" y="81.08" width="2.32" height="2.32"/>
        <rect x="74.13" y="81.08" width="2.32" height="2.32"/>
        <rect x="76.45" y="81.08" width="2.32" height="2.32"/>
        <rect x="18.53" y="83.4" width="2.32" height="2.32"/>
        <rect x="20.85" y="83.4" width="2.32" height="2.32"/>
        <rect x="25.48" y="83.4" width="2.32" height="2.32"/>
        <rect x="27.8" y="83.4" width="2.32" height="2.32"/>
        <rect x="30.12" y="83.4" width="2.32" height="2.32"/>
        <rect x="37.07" y="83.4" width="2.32" height="2.32"/>
        <rect x="44.02" y="83.4" width="2.32" height="2.32"/>
        <rect x="46.33" y="83.4" width="2.32" height="2.32"/>
        <rect x="50.97" y="83.4" width="2.32" height="2.32"/>
        <rect x="53.28" y="83.4" width="2.32" height="2.32"/>
        <rect x="55.6" y="83.4" width="2.32" height="2.32"/>
        <rect x="64.86" y="83.4" width="2.32" height="2.32"/>
        <rect x="67.18" y="83.4" width="2.32" height="2.32"/>
        <rect x="69.5" y="83.4" width="2.32" height="2.32"/>
        <rect x="71.81" y="83.4" width="2.32" height="2.32"/>
        <rect x="76.45" y="83.4" width="2.32" height="2.32"/>
        <rect x="83.4" y="83.4" width="2.32" height="2.32"/>
        <g>
          <path d="M2.43,10.74V5.47a3.08,3.08,0,0,1,3.1-3h5.14a3.08,3.08,0,0,1,3.1,3v8.31H5.54A3.08,3.08,0,0,1,2.43,10.74Z" style="fill: none"/>
          <path d="M0,10.74V5.47A5.51,5.51,0,0,1,5.54,0h5.14a5.51,5.51,0,0,1,5.54,5.47V16.22H5.54A5.51,5.51,0,0,1,0,10.74Zm2.43,0a3.08,3.08,0,0,0,3.1,3h8.25V5.47a3.08,3.08,0,0,0-3.1-3H5.54a3.08,3.08,0,0,0-3.1,3Z"/>
        </g>
        <g>
          <path d="M83.28,10.74V5.47a3.08,3.08,0,0,0-3.1-3H75a3.08,3.08,0,0,0-3.1,3v8.31h8.25A3.08,3.08,0,0,0,83.28,10.74Z" style="fill: none"/>
          <path d="M85.71,10.74V5.47A5.51,5.51,0,0,0,80.18,0H75A5.51,5.51,0,0,0,69.5,5.47V16.22H80.18A5.51,5.51,0,0,0,85.71,10.74Zm-2.43,0a3.08,3.08,0,0,1-3.1,3H71.93V5.47a3.08,3.08,0,0,1,3.1-3h5.14a3.08,3.08,0,0,1,3.1,3Z"/>
        </g>
        <g>
          <path d="M2.43,75v5.27a3.08,3.08,0,0,0,3.1,3h5.14a3.08,3.08,0,0,0,3.1-3V71.93H5.54A3.08,3.08,0,0,0,2.43,75Z" style="fill: none"/>
          <path d="M0,75v5.27a5.51,5.51,0,0,0,5.54,5.47h5.14a5.51,5.51,0,0,0,5.54-5.47V69.5H5.54A5.51,5.51,0,0,0,0,75Zm2.43,0a3.08,3.08,0,0,1,3.1-3h8.25v8.31a3.08,3.08,0,0,1-3.1,3H5.54a3.08,3.08,0,0,1-3.1-3Z"/>
        </g>
        <path d="M4.63,9.69V6.52A1.91,1.91,0,0,1,6.55,4.63H9.66a1.91,1.91,0,0,1,1.92,1.89v5.06h-5A1.91,1.91,0,0,1,4.63,9.69Z"/>
        <path d="M81.08,9.69V6.52a1.91,1.91,0,0,0-1.92-1.89H76.05a1.91,1.91,0,0,0-1.92,1.89v5.06h5A1.91,1.91,0,0,0,81.08,9.69Z"/>
        <path d="M4.63,76v3.17a1.91,1.91,0,0,0,1.92,1.89H9.66a1.91,1.91,0,0,0,1.92-1.89V74.13h-5A1.91,1.91,0,0,0,4.63,76Z"/>
      </g>
    </g>
  </g>
</svg>