<?xml version="1.0" encoding="utf-8"?>
<!-- Generator: Adobe Illustrator 21.1.0, SVG Export Plug-In . SVG Version: 6.00 Build 0)  -->
<svg version="1.1" id="Capa_1" xmlns="http://www.w3.org/2000/svg" xmlns:xlink="http://www.w3.org/1999/xlink" x="0px" y="0px"
	 viewBox="0 0 100 100" style="enable-background:new 0 0 100 100;" xml:space="preserve">
<style type="text/css">
	.st0{fill:#004D82;}
	.st1{fill:#2BE8FC;}
</style>
<g>
	<path class="st0" d="M38.4,61.9c9,8.9,19.4,17.4,23.4,13.3c5.8-5.9,9.4-11,22.4-0.7c12.9,10.3,3.1,17.3-2.6,23
		c-6.5,6.6-30.9,0.5-55.2-23.6s-30.5-48.4-24-55c5.7-5.7,12.5-15.6,23-2.8s5.3,16.5-0.5,22.4C20.8,42.6,29.4,53,38.4,61.9z"/>
	<path class="st1" d="M51.4,19.4c0,0-2.7-0.4-4.6,1.5c-2,2-2,5.3,0,7.4c1.2,1.2,2.9,1.5,2.9,1.5c3.3,0.6,8.4,1.7,13.7,7
		s6.4,10.4,7,13.7c0,0,0.3,1.7,1.5,2.9c2,2,5.4,2,7.4,0c1.9-1.9,1.5-4.6,1.5-4.6c-1.1-6.8-4.3-13.8-10-19.4
		C65.2,23.7,58.1,20.5,51.4,19.4z"/>
	<path class="st1" d="M76.7,23.4c9.8,9.8,14,20.9,12.6,30c0,0-0.5,2.9,1.4,4.7c2.1,2.1,5.4,2,7.4,0c1.3-1.3,1.5-3.3,1.5-3.3
		c1.1-7.8-0.3-23.5-15.6-38.8C68.8,0.8,53.2-0.6,45.3,0.5c0,0-2,0.3-3.3,1.5c-2,2-2.1,5.3,0,7.4c1.9,1.9,4.7,1.4,4.7,1.4
		C55.8,9.4,66.9,13.6,76.7,23.4z"/>
</g>
</svg>
