<svg id="Capa_1" data-name="Capa 1" xmlns="http://www.w3.org/2000/svg" viewBox="0 0 100 100"><defs><style>.cls-1{fill:#2be8fc;}.cls-2{fill:#004d82;}</style></defs><title>email</title><polygon class="cls-1" points="5.13 28.12 5.13 81.44 11.05 86.94 90.52 86.94 96.55 79.94 96.55 22.44 50 49.66 5.13 28.12"/><path class="cls-2" d="M86.77,9.19H13.23A13.25,13.25,0,0,0,0,22.42V77.58A13.25,13.25,0,0,0,13.23,90.81H86.77A13.25,13.25,0,0,0,100,77.58V22.42A13.25,13.25,0,0,0,86.77,9.19Zm5.15,68.38a5.16,5.16,0,0,1-5.15,5.15H13.23a5.16,5.16,0,0,1-5.15-5.15V22.42a5.16,5.16,0,0,1,5.15-5.15H86.77a5.16,5.16,0,0,1,5.15,5.15V77.58Z"/><path class="cls-2" d="M99.27,20.11a4,4,0,0,0-5.63-1L50,49.66,6.36,19.11a4,4,0,0,0-4.63,6.62l46,32.17a4,4,0,0,0,4.63,0l46-32.17A4,4,0,0,0,99.27,20.11Z"/></svg>