<svg version="1.1" id="Layer_1" xmlns="http://www.w3.org/2000/svg" xmlns:xlink="http://www.w3.org/1999/xlink" x="0px" y="0px"
	 viewBox="0 0 176 54" style="enable-background:new 0 0 176 54;" xml:space="preserve">
<defs>
    <style type="text/css">
        .st0{fill:#2aa7df;stroke-miterlimit:5;}
        .st1{fill:#5a5a5d;stroke-miterlimit:5;}
        .st2{fill:#2aa7df;stroke-miterlimit:5;}
        .st3{fill:#ffffff;stroke-miterlimit:5;}
    </style>
</defs>
<path id="ltr-L" class="st0" d="M138.6,35.8V15.5h1.8v20.8c0,1.2,0.7,2.5,1.3,3.2c0.8,0.7,2.5,1.3,3.9,1.3h7.7v1.7h-7.7
	c-2.1,0-3.8-0.6-5.1-1.7C139.3,39.5,138.6,37.9,138.6,35.8z"/>
<path id="ltr-Y" class="st0" d="M147.5,22.5h2l6.8,16.7l7.1-16.7h1.9L154,49.4h-2l3-7.6L147.5,22.5z"/>
<path id="ltr-F" class="st0" d="M166.3,42.4V22.1c0-2.1,0.6-3.7,1.9-4.9c1.3-1.2,3-1.8,5.1-1.8h0.7v1.5h-1.2
	c-1.4,0.1-2.8,0.8-3.4,1.4c-0.9,0.9-1.3,2.3-1.3,3.2v0.8h5.9v1.6h-5.9v18.4L166.3,42.4L166.3,42.4z"/>
<path id="XMLID_114_" class="st1" d="M107,41.7h-2.5V16.2h2.5V41.7z"/>
<path id="XMLID_110_" class="st1" d="M113,41.7h-2.5V16.2h2.5V41.7z"/>
<path id="XMLID_107_" class="st1" d="M132.1,39.3c-2,2-4.3,2.9-7,2.8c-2.6,0-4.9-1.1-6.7-3c-1.8-1.9-2.7-4.2-2.7-6.9
	c0-2.8,1-5.1,2.9-7.1c2-2,4.3-2.9,7-2.9c2.6,0.1,4.9,1.1,6.7,3s2.8,4.2,2.8,6.9C135,35,134,37.3,132.1,39.3z M125.1,39.7
	c2.1,0.1,3.8-0.6,5.3-2.1c1.5-1.6,2.2-3.3,2.1-5.4c0-2-0.8-3.7-2.1-5.1s-3-2.1-4.9-2.1c-2,0-3.7,0.7-5.1,2.1s-2.1,3.1-2.1,5.1
	s0.6,3.7,2,5.2C121.5,38.8,123.1,39.6,125.1,39.7z"/>
<path id="XMLID_106_" class="st1" d="M76.4,24.9c-1.7-1.7-3.7-2.4-6-2.3c-2.2,0.1-4.1,1.1-5.5,3v-9.3h-2.5v21H65v-6.6
	c0-1.6,0.5-2.9,1.6-4s2.5-1.6,4-1.6c1.6,0,2.9,0.5,4.1,1.7s1.7,2.5,1.7,4.1v11h2.5V31C79,28.6,78.1,26.5,76.4,24.9z"/>
<circle id="dot" class="st2" cx="63.7" cy="39.9" r="2"/>
<path id="XMLID_12_" class="st1" d="M102,31.9c0-5.6-4.5-10.1-10.1-10.1s-10.1,4.5-10.1,10.1S86.3,42,91.9,42c4.9,0,8.9-3.4,9.9-7.9
	H99c-1.1,3.1-3.5,5.3-7.2,5.3c-3.5,0-7-3.3-7.2-6.9h14.2h3.1l0,0h0C102,32.1,102,32,102,31.9z M91.9,24.8c3.5,0,6.4,2.4,7.3,5.6
	H84.6C85.5,27.2,88.3,24.8,91.9,24.8z"/>
<path id="box" class="st0" d="M17.1,52h35.1V16.9c0-8.4-6.8-15.2-15.1-15.2H17.2C8.8,1.7,2,8.5,2,16.9v19.9C2,45.1,8.8,52,17.1,52z"
	/>
<g>
	<path id="smile" class="st3" d="M15.4,42.7c0,0,0.1,0,0.4,0.2c0.2,0.1,0.6,0.3,1,0.5c0.8,0.4,2.1,0.9,3.7,1.3
		c3.2,0.8,7.6,0.6,11.7-0.7c2-0.7,3.9-1.7,5.5-2.8c1.6-1.2,2.9-2.5,3.8-3.7c0.4-0.7,0.8-1.2,1.1-1.8c0.1-0.3,0.3-0.5,0.4-0.8
		c0.1-0.2,0.2-0.5,0.3-0.7c0.2-0.4,0.3-0.7,0.4-0.9c0.1-0.2,0.1-0.4,0.1-0.4s0.4-1.1,1.6-0.8c1.2,0.3,0.7,1.6,0.7,1.6s0,0.1-0.1,0.4
		c-0.1,0.3-0.3,0.6-0.5,1.1c-0.1,0.2-0.2,0.5-0.4,0.8s-0.4,0.5-0.5,0.8c-0.4,0.6-0.9,1.2-1.4,1.9c-1.2,1.3-2.6,2.7-4.5,3.8
		s-3.9,2.1-6.1,2.6c-2.2,0.6-4.4,0.8-6.5,0.7c-1,0-2.1-0.1-3-0.3c-0.9-0.1-1.8-0.4-2.6-0.6c-1.6-0.5-2.8-1.1-3.7-1.6
		c-0.4-0.2-0.8-0.4-1-0.6C15.5,42.8,15.4,42.7,15.4,42.7z"/>
</g>
<g>
	<path id="wink" class="st3" d="M47.7,33.7c0,0,0-0.1-0.1-0.2s-0.2-0.4-0.4-0.6c-0.3-0.4-0.8-1-1.4-1.4s-1.2-0.7-1.7-0.9
		c-0.5-0.2-0.8-0.3-0.8-0.3s-0.2-0.1,0.5-1.2s0.8-0.9,0.8-0.9s0.3,0.3,0.7,0.7c0.4,0.4,1,1.1,1.4,1.8c0.4,0.7,0.7,1.5,0.8,2.1
		c0,0.3,0.1,0.5,0.1,0.7C47.7,33.6,47.7,33.7,47.7,33.7z"/>
</g>
</svg>
