<?xml version="1.0" encoding="utf-8"?>
<!-- Generator: Adobe Illustrator 21.0.0, SVG Export Plug-In . SVG Version: 6.00 Build 0)  -->
<svg version="1.1" id="Layer_1" xmlns="http://www.w3.org/2000/svg" xmlns:xlink="http://www.w3.org/1999/xlink" x="0px" y="0px"
	 viewBox="0 0 200 47.5" style="enable-background:new 0 0 200 47.5;" xml:space="preserve">
<style type="text/css">
	.st0{fill:#FFFFFF;stroke:#FFFFFF;stroke-width:8.446425e-02;stroke-miterlimit:10;}
	.st1{fill:#FFFFFF;}
	.st2{fill:url(#_Path__1_);}
	.st3{fill:url(#_Path_2_1_);}
	.st4{fill:url(#_Path_3_1_);}
	.st5{fill:url(#_Path_4_1_);}
	.st6{opacity:0.2;enable-background:new    ;}
	.st7{opacity:0.12;enable-background:new    ;}
	.st8{opacity:0.25;fill:#FFFFFF;enable-background:new    ;}
	.st9{fill:#2AA5DD;}
	.st10{enable-background:new    ;}
</style>
<title>Asset 2</title>
<g id="Layer_2">
	<g id="Layer_1-2">
		<g id="_Group_">
			<path d="M5.9,0H194c3.3,0,5.9,2.7,5.9,5.9v35.6c0,3.3-2.7,5.9-5.9,5.9H5.9c-3.3,0-5.9-2.7-5.9-5.9V5.9C0,2.7,2.7,0,5.9,0z"/>
		</g>
		<g id="_Group_4">
			<path id="_Compound_Path_2" class="st0" d="M96,12.2c0,0.9-0.3,1.7-0.9,2.4c-0.7,0.7-1.6,1.1-2.6,1.1c-2,0-3.7-1.6-3.7-3.6V12
				c0-2,1.6-3.7,3.6-3.7h0.1c0.5,0,1,0.1,1.5,0.3c0.4,0.2,0.8,0.4,1.1,0.8L94.5,10c-0.5-0.6-1.2-0.9-2-0.9c-1.5,0-2.8,1.2-2.8,2.7
				v0.1c0,1.5,1.2,2.8,2.7,2.9c0.8,0,1.5-0.3,2-0.8c0.4-0.4,0.6-0.9,0.6-1.4h-2.5v-0.9H96C96,11.8,96,12,96,12.2z"/>
			<path id="_Compound_Path_3" class="st0" d="M101.5,9.2h-3.3v2.3h2.9v0.9h-2.9v2.3h3.2v0.9h-4.2V8.3h4.2L101.5,9.2z"/>
			<path id="_Compound_Path_4" class="st0" d="M105.3,15.4h-0.9V9.2h-2V8.3h4.9v0.9h-2V15.4z"/>
			<path id="_Compound_Path_5" class="st0" d="M110.9,15.4V8.3h0.9v7.1H110.9z"/>
			<path id="_Compound_Path_6" class="st0" d="M115.8,15.4h-0.9V9.2h-2V8.3h4.9v0.9h-2V15.4z"/>
			<path id="_Compound_Path_7" class="st0" d="M127.1,14.5c-1.4,1.4-3.8,1.4-5.2,0c-0.7-0.7-1-1.7-1-2.6c0-1,0.3-1.9,1-2.6
				c1.4-1.4,3.8-1.4,5.2,0l0,0c0.7,0.7,1.1,1.7,1,2.6C128.2,12.9,127.8,13.8,127.1,14.5z M122.5,13.9c1.1,1.1,2.8,1.1,3.9,0
				c0.5-0.5,0.8-1.3,0.8-2s-0.3-1.5-0.8-2c-1.1-1.1-2.8-1.1-3.9,0c-0.5,0.5-0.8,1.3-0.8,2C121.7,12.7,122,13.4,122.5,13.9
				L122.5,13.9z"/>
			<path id="_Compound_Path_8" class="st0" d="M129.4,15.4V8.3h1.1l3.4,5.5l0,0v-1.4V8.3h0.9v7.1h-1l-3.6-5.8l0,0V11v4.4H129.4z"/>
		</g>
		<path id="_Compound_Path_9" class="st1" d="M120.6,25.8c-2.8,0-5,2.3-5,5.1s2.3,5,5.1,5c2.8,0,5-2.3,5-5c0-2.8-2.2-5-4.9-5.1
			C120.7,25.8,120.6,25.8,120.6,25.8z M120.6,33.9c-1.7,0.1-3.2-1.2-3.3-2.8c-0.1-1.7,1.2-3.2,2.8-3.3s3.2,1.2,3.3,2.8
			c0,0.1,0,0.1,0,0.2C123.5,32.5,122.3,33.9,120.6,33.9L120.6,33.9z M109.5,25.8c-2.8,0-5,2.3-5,5.1s2.3,5,5.1,5c2.8,0,5-2.3,5-5
			c0-2.8-2.2-5-4.9-5.1C109.6,25.8,109.6,25.8,109.5,25.8L109.5,25.8z M109.5,33.9c-1.7,0.1-3.2-1.2-3.3-2.8
			c-0.1-1.7,1.2-3.2,2.8-3.3s3.2,1.2,3.3,2.8c0,0.1,0,0.1,0,0.2C112.5,32.5,111.2,33.9,109.5,33.9C109.6,33.9,109.6,33.9,109.5,33.9
			L109.5,33.9z M96.4,27.4v2.1h5.1c-0.1,1-0.5,2-1.2,2.7c-1,1.1-2.5,1.6-4,1.6c-3.1,0-5.7-2.6-5.7-5.7s2.6-5.7,5.7-5.7
			c1.4,0,2.8,0.5,3.9,1.5l1.5-1.5c-1.4-1.4-3.4-2.2-5.4-2.2c-4.3,0-7.8,3.5-7.8,7.8s3.5,7.8,7.8,7.8l0,0c2.1,0.1,4-0.7,5.5-2.2
			c1.2-1.4,1.9-3.2,1.9-5c0-0.4,0-0.9-0.1-1.3L96.4,27.4z M150.2,29c-0.6-1.9-2.3-3.2-4.3-3.2c-2.7,0-4.8,2.2-4.8,4.8
			c0,0.1,0,0.1,0,0.2c-0.1,2.7,2.1,5,4.8,5c0.1,0,0.1,0,0.2,0c1.7,0,3.3-0.8,4.2-2.2l-1.7-1.2c-0.5,0.9-1.5,1.4-2.5,1.4
			c-1.1,0-2-0.6-2.4-1.5l6.8-2.8L150.2,29z M143.3,30.7c-0.1-1.5,1.1-2.8,2.6-2.9c0,0,0,0,0.1,0c0.8,0,1.5,0.4,1.9,1.1L143.3,30.7z
			 M137.8,35.6h2.2V20.8h-2.2V35.6z M134.2,27L134.2,27c-0.8-0.7-1.7-1.2-2.7-1.1c-2.8,0-5,2.3-5,5.1s2.3,5,5,5c1,0,2-0.4,2.7-1.2
			h0.1v0.7c0,1.9-1,3-2.7,3c-1.1,0-2.1-0.7-2.5-1.8l-1.9,0.8c0.7,1.8,2.5,3,4.5,3c2.6,0,4.8-1.5,4.8-5.3V26h-2.1L134.2,27z
			 M131.6,34c-1.7-0.1-2.9-1.6-2.8-3.3c0.1-1.5,1.3-2.7,2.8-2.8c1.6,0.1,2.8,1.4,2.7,3V31C134.4,32.5,133.2,33.8,131.6,34
			C131.7,33.9,131.6,33.9,131.6,34L131.6,34z M160.6,20.8h-5.3v14.8h2.2V30h3.1c2.5,0.2,4.7-1.8,4.9-4.3s-1.8-4.7-4.3-4.9
			C161,20.8,160.8,20.8,160.6,20.8L160.6,20.8z M160.7,28h-3.1v-5.1h3.1c1.4,0,2.5,1.1,2.5,2.5S162.1,27.9,160.7,28L160.7,28z
			 M174.4,25.9c-1.7-0.1-3.2,0.8-4,2.3l2,0.8c0.4-0.7,1.2-1.2,2-1.1c1.2-0.1,2.2,0.7,2.3,1.9l0,0v0.1c-0.7-0.4-1.5-0.6-2.3-0.6
			c-2.1,0-4.3,1.2-4.3,3.3c0.1,1.9,1.7,3.4,3.6,3.3h0.1c1.1,0.1,2.2-0.5,2.8-1.5h0.1v1.1h2.1v-5.7C178.8,27.3,176.9,25.8,174.4,25.9
			L174.4,25.9z M174.1,34c-0.7,0-1.7-0.4-1.7-1.3c0-1.1,1.3-1.6,2.4-1.6c0.7,0,1.4,0.2,2,0.5C176.5,33,175.4,33.9,174.1,34L174.1,34
			z M186.7,26.2l-2.5,6.4H184l-2.6-6.4H179l4,9l-2.3,5h2.3l6.1-14L186.7,26.2z M166.7,35.7h2.2V20.8h-2.2V35.7z"/>
		<g id="_Group_5">
			
				<linearGradient id="_Path__1_" gradientUnits="userSpaceOnUse" x1="65.6185" y1="1630.6484" x2="45.6985" y2="1650.5785" gradientTransform="matrix(1 0 0 1 0 -1620.27)">
				<stop  offset="0" style="stop-color:#00A0FF"/>
				<stop  offset="1.000000e-02" style="stop-color:#00A1FF"/>
				<stop  offset="0.26" style="stop-color:#00BEFF"/>
				<stop  offset="0.51" style="stop-color:#00D2FF"/>
				<stop  offset="0.76" style="stop-color:#00DFFF"/>
				<stop  offset="1" style="stop-color:#00E3FF"/>
			</linearGradient>
			<path id="_Path_" class="st2" d="M52.1,9c-0.4,0.5-0.6,1.1-0.5,1.7v26.2c0,0.6,0.2,1.2,0.5,1.7l0.1,0.1L66.9,24v-0.4L52.2,8.9
				L52.1,9z"/>
			
				<linearGradient id="_Path_2_1_" gradientUnits="userSpaceOnUse" x1="79.87" y1="1643.97" x2="51.14" y2="1643.97" gradientTransform="matrix(1 0 0 1 0 -1620.27)">
				<stop  offset="0" style="stop-color:#FFE000"/>
				<stop  offset="0.41" style="stop-color:#FFBD00"/>
				<stop  offset="0.78" style="stop-color:#FFA500"/>
				<stop  offset="1" style="stop-color:#FF9C00"/>
			</linearGradient>
			<path id="_Path_2" class="st3" d="M71.8,28.8l-4.9-4.9v-0.4l4.9-4.9l0.1,0.1l5.8,3.3c1.7,0.9,1.7,2.5,0,3.4l-5.8,3.3L71.8,28.8z"
				/>
			
				<linearGradient id="_Path_3_1_" gradientUnits="userSpaceOnUse" x1="69.205" y1="1646.7649" x2="42.175" y2="1673.7852" gradientTransform="matrix(1 0 0 1 0 -1620.27)">
				<stop  offset="0" style="stop-color:#FF3A44"/>
				<stop  offset="1" style="stop-color:#C31162"/>
			</linearGradient>
			<path id="_Path_3" class="st4" d="M71.9,28.8l-5-5L52.1,38.6c0.7,0.6,1.7,0.6,2.5,0.1L71.9,28.8"/>
			
				<linearGradient id="_Path_4_1_" gradientUnits="userSpaceOnUse" x1="48.3513" y1="1620.4888" x2="60.4213" y2="1632.5488" gradientTransform="matrix(1 0 0 1 0 -1620.27)">
				<stop  offset="0" style="stop-color:#32A071"/>
				<stop  offset="7.000000e-02" style="stop-color:#2DA771"/>
				<stop  offset="0.48" style="stop-color:#15CF74"/>
				<stop  offset="0.8" style="stop-color:#06E775"/>
				<stop  offset="1" style="stop-color:#00F076"/>
			</linearGradient>
			<path id="_Path_4" class="st5" d="M71.9,18.7L54.6,8.9c-0.7-0.6-1.8-0.5-2.5,0.1l14.8,14.8L71.9,18.7z"/>
			<g id="_Group_6">
				<path id="_Path_5" class="st6" d="M71.8,28.6l-17.2,9.8c-0.7,0.5-1.7,0.5-2.4,0l0,0l-0.1,0.1l0,0l0.1,0.1l0,0
					c0.7,0.5,1.7,0.5,2.4,0L71.8,28.6L71.8,28.6z"/>
				<path id="_Path_6" class="st7" d="M52.1,38.4c-0.4-0.5-0.6-1.1-0.5-1.7v0.2c0,0.6,0.2,1.2,0.5,1.7V38.4L52.1,38.4z"/>
			</g>
			<path id="_Path_7" class="st7" d="M77.7,25.3l-5.9,3.4l0.1,0.1l5.8-3.3c0.7-0.3,1.2-0.9,1.3-1.7l0,0C78.8,24.4,78.4,25,77.7,25.3
				z"/>
			<path id="_Path_8" class="st8" d="M54.6,9.1l23.1,13.2c0.7,0.3,1.1,0.8,1.3,1.5l0,0c-0.1-0.8-0.6-1.5-1.3-1.8L54.6,8.9
				c-1.7-0.9-3-0.2-3,1.7v0.2C51.5,8.9,52.9,8.1,54.6,9.1z"/>
		</g>
		<g>
			<g>
				<path class="st9" d="M29.7,8.5H17.6c-5.1,0-9.2,4.1-9.2,9.2v12.1c0,5.1,4.1,9.2,9.2,9.2h21.3V17.7C38.9,12.6,34.8,8.5,29.7,8.5z
					"/>
				<g>
					<path class="st1" d="M18.1,34.1C17.8,34,17.8,34,18.1,34.1z"/>
					<path class="st1" d="M34.7,26.9c-0.4-0.1-0.9,0.1-1,0.5c0,0.1,0,0.2-0.1,0.2c-0.1,0.1-0.1,0.3-0.2,0.5s-0.1,0.3-0.2,0.4
						S33,28.8,33,29c-0.2,0.4-0.4,0.7-0.7,1.1c-0.7,0.8-1.5,1.6-2.3,2.2c-1,0.7-2.2,1.3-3.3,1.7c-2.3,0.8-4.7,0.9-7.1,0.4
						c-0.5-0.1-1-0.3-1.5-0.5c0.5,0.2,1,0.4,1.5,0.6c0.5,0.2,1,0.3,1.6,0.4c0.6,0.1,1.2,0.2,1.8,0.2c1.4,0.1,2.7-0.1,4-0.4
						c1.3-0.3,2.6-0.9,3.7-1.6c1-0.6,1.9-1.4,2.7-2.3c0.3-0.4,0.6-0.8,0.8-1.1c0.1-0.2,0.2-0.3,0.3-0.5s0.2-0.3,0.2-0.5
						c0.1-0.3,0.2-0.5,0.3-0.7c0-0.1,0.1-0.2,0.1-0.2C35.2,27.9,35.5,27.1,34.7,26.9z"/>
					<path class="st1" d="M36,27.4c-0.1-0.5-0.3-0.9-0.5-1.3S35,25.3,34.7,25l-0.4-0.4c0,0-0.1-0.1-0.5,0.5s-0.3,0.7-0.3,0.7L34,26
						c0.4,0.1,0.7,0.3,1,0.5c0.4,0.3,0.8,0.7,1.1,1.2C36.1,27.7,36,27.5,36,27.4z"/>
				</g>
			</g>
			<g class="st10">
				<path class="st1" d="M15.1,28V17.6h3.2c0.9,0,1.7,0.2,2.5,0.6c0.7,0.4,1.3,1,1.7,1.8c0.4,0.8,0.6,1.6,0.6,2.6v0.5
					c0,1-0.2,1.8-0.6,2.6c-0.4,0.8-1,1.3-1.7,1.8S19.2,28,18.3,28H15.1z M17.2,19.4v7h1c0.8,0,1.5-0.3,1.9-0.8s0.7-1.3,0.7-2.4v-0.6
					c0-1.1-0.2-1.9-0.7-2.4c-0.4-0.5-1.1-0.8-1.9-0.8C18.2,19.4,17.2,19.4,17.2,19.4z"/>
			</g>
			<g class="st10">
				<path class="st1" d="M28.8,22.2c-0.3,0-0.5-0.1-0.7-0.1c-0.8,0-1.3,0.3-1.5,0.8V28h-2.1v-7.7h2l0.1,0.9c0.4-0.7,1-1.1,1.7-1.1
					c0.2,0,0.4,0,0.6,0.1L28.8,22.2z"/>
			</g>
			<g class="st10">
				<path class="st1" d="M28.7,27c0-0.3,0.1-0.6,0.3-0.8c0.2-0.2,0.5-0.3,0.8-0.3s0.6,0.1,0.8,0.3c0.2,0.2,0.3,0.5,0.3,0.8
					s-0.1,0.6-0.3,0.8c-0.2,0.2-0.5,0.3-0.8,0.3S29.2,28,29,27.8C28.8,27.6,28.7,27.3,28.7,27z"/>
			</g>
		</g>
	</g>
</g>
</svg>
